<mxfile host="app.diagrams.net" modified="2023-09-10T00:32:00.410Z" agent="Mozilla/5.0 (Windows NT 10.0; Win64; x64; rv:109.0) Gecko/20100101 Firefox/117.0" etag="9YNYZS8pPgegh_3iPy3A" version="21.7.4" type="device">
  <diagram name="Página-1" id="Asc3d0rFs4MpIA4GdTUb">
    <mxGraphModel dx="1434" dy="792" grid="1" gridSize="10" guides="1" tooltips="1" connect="1" arrows="1" fold="1" page="1" pageScale="1" pageWidth="827" pageHeight="1169" math="0" shadow="0">
      <root>
        <mxCell id="0" />
        <mxCell id="1" parent="0" />
        <mxCell id="hMDkXw96aWppre7RKmBC-1" value="" style="strokeWidth=2;html=1;shape=mxgraph.flowchart.start_2;whiteSpace=wrap;" vertex="1" parent="1">
          <mxGeometry x="110" y="97.5" width="30" height="30" as="geometry" />
        </mxCell>
        <mxCell id="hMDkXw96aWppre7RKmBC-5" style="edgeStyle=orthogonalEdgeStyle;rounded=0;orthogonalLoop=1;jettySize=auto;html=1;entryX=0.5;entryY=0;entryDx=0;entryDy=0;" edge="1" parent="1" source="hMDkXw96aWppre7RKmBC-2" target="hMDkXw96aWppre7RKmBC-4">
          <mxGeometry relative="1" as="geometry" />
        </mxCell>
        <mxCell id="hMDkXw96aWppre7RKmBC-2" value="Presionar el botón &quot;Pestaña hambuerguesa&quot; en la esquina superior derecha" style="rounded=1;whiteSpace=wrap;html=1;" vertex="1" parent="1">
          <mxGeometry x="354" y="70" width="120" height="85" as="geometry" />
        </mxCell>
        <mxCell id="hMDkXw96aWppre7RKmBC-3" value="" style="endArrow=classic;html=1;rounded=0;exitX=1;exitY=0.5;exitDx=0;exitDy=0;exitPerimeter=0;entryX=0;entryY=0.5;entryDx=0;entryDy=0;" edge="1" parent="1" source="hMDkXw96aWppre7RKmBC-1" target="hMDkXw96aWppre7RKmBC-2">
          <mxGeometry width="50" height="50" relative="1" as="geometry">
            <mxPoint x="260" y="385" as="sourcePoint" />
            <mxPoint x="310" y="335" as="targetPoint" />
          </mxGeometry>
        </mxCell>
        <mxCell id="hMDkXw96aWppre7RKmBC-7" style="edgeStyle=orthogonalEdgeStyle;rounded=0;orthogonalLoop=1;jettySize=auto;html=1;entryX=0.5;entryY=0;entryDx=0;entryDy=0;" edge="1" parent="1" source="hMDkXw96aWppre7RKmBC-4" target="hMDkXw96aWppre7RKmBC-6">
          <mxGeometry relative="1" as="geometry" />
        </mxCell>
        <mxCell id="hMDkXw96aWppre7RKmBC-4" value="Presiona la opción &quot;Ver ficha personal&quot;" style="rounded=1;whiteSpace=wrap;html=1;" vertex="1" parent="1">
          <mxGeometry x="354" y="250" width="120" height="85" as="geometry" />
        </mxCell>
        <mxCell id="hMDkXw96aWppre7RKmBC-9" style="edgeStyle=orthogonalEdgeStyle;rounded=0;orthogonalLoop=1;jettySize=auto;html=1;entryX=0.5;entryY=0;entryDx=0;entryDy=0;" edge="1" parent="1" source="hMDkXw96aWppre7RKmBC-6" target="hMDkXw96aWppre7RKmBC-8">
          <mxGeometry relative="1" as="geometry" />
        </mxCell>
        <mxCell id="hMDkXw96aWppre7RKmBC-6" value="Accede a la página de su ficha personal" style="rounded=1;whiteSpace=wrap;html=1;" vertex="1" parent="1">
          <mxGeometry x="354" y="430" width="120" height="85" as="geometry" />
        </mxCell>
        <mxCell id="hMDkXw96aWppre7RKmBC-8" value="" style="ellipse;shape=doubleEllipse;whiteSpace=wrap;html=1;aspect=fixed;perimeterSpacing=0;strokeWidth=2;" vertex="1" parent="1">
          <mxGeometry x="394" y="585" width="40" height="40" as="geometry" />
        </mxCell>
      </root>
    </mxGraphModel>
  </diagram>
</mxfile>
